<?xml version="1.0" encoding="UTF-8" standalone="no"?>
<!-- Created with Inkscape (http://www.inkscape.org/) -->

<svg
   xmlns:dc="http://purl.org/dc/elements/1.1/"
   xmlns:cc="http://creativecommons.org/ns#"
   xmlns:rdf="http://www.w3.org/1999/02/22-rdf-syntax-ns#"
   xmlns:svg="http://www.w3.org/2000/svg"
   xmlns="http://www.w3.org/2000/svg"
   xmlns:sodipodi="http://sodipodi.sourceforge.net/DTD/sodipodi-0.dtd"
   xmlns:inkscape="http://www.inkscape.org/namespaces/inkscape"
   id="svg3039"
   version="1.1"
   inkscape:version="0.48.0 r9654"
   width="402"
   height="402"
   sodipodi:docname="yoga2.svg"
   inkscape:export-filename="/home/ruben/Images/iconesOSM/yoga.png"
   inkscape:export-xdpi="4.2825279"
   inkscape:export-ydpi="4.2825279">
  <metadata
     id="metadata3045">
    <rdf:RDF>
      <cc:Work
         rdf:about="">
        <dc:format>image/svg+xml</dc:format>
        <dc:type
           rdf:resource="http://purl.org/dc/dcmitype/StillImage" />
        <dc:title></dc:title>
      </cc:Work>
    </rdf:RDF>
  </metadata>
  <defs
     id="defs3043" />
  <sodipodi:namedview
     pagecolor="#ffffff"
     bordercolor="#666666"
     borderopacity="1"
     objecttolerance="10"
     gridtolerance="10"
     guidetolerance="10"
     inkscape:pageopacity="0"
     inkscape:pageshadow="2"
     inkscape:window-width="1600"
     inkscape:window-height="823"
     id="namedview3041"
     showgrid="true"
     inkscape:zoom="1.4142136"
     inkscape:cx="370.90413"
     inkscape:cy="229.46696"
     inkscape:window-x="0"
     inkscape:window-y="24"
     inkscape:window-maximized="1"
     inkscape:current-layer="layer1"
     inkscape:snap-grids="true"
     showborder="true"
     fit-margin-top="0"
     fit-margin-left="0"
     fit-margin-right="0"
     fit-margin-bottom="0"
     height="371.04724px"
     borderlayer="true">
    <inkscape:grid
       type="xygrid"
       id="grid4137"
       empspacing="5"
       visible="true"
       enabled="true"
       snapvisiblegridlinesonly="true" />
  </sodipodi:namedview>
  <g
     inkscape:groupmode="layer"
     id="layer1"
     inkscape:label="yoga"
     transform="translate(343,-96.125)">
    <path
       style="fill:#000000"
       d=""
       id="path3060"
       inkscape:connector-curvature="0" />
    <path
       style="fill:#000000"
       d=""
       id="path3062"
       inkscape:connector-curvature="0" />
    <g
       id="g3231"
       transform="matrix(0.08275862,0,0,0.08275862,188.01577,211.94746)">
      <g
         id="g3694"
         transform="translate(67.279567,67.887125)">
        <g
           id="g3689">
          <path
             style="fill:none;stroke:#ffffff;stroke-width:4.04036236;stroke-linecap:butt;stroke-linejoin:miter;stroke-miterlimit:4;stroke-opacity:1;stroke-dasharray:none"
             id="path3303"
             d="m 39.090816,212.42483 c 0,0 10.100909,8.08072 24.242182,8.08072 14.141265,0 24.242175,-8.08072 24.242175,-8.08072"
             inkscape:connector-curvature="0" />
          <path
             style="fill:none;stroke:#ffffff;stroke-width:4.04036236;stroke-linecap:butt;stroke-linejoin:miter;stroke-miterlimit:4;stroke-opacity:1;stroke-dasharray:none"
             id="path3367"
             d="m 39.090816,260.90921 c 0,0 10.100909,-8.08074 24.242182,-8.08074 14.141265,0 24.242175,8.08074 24.242175,8.08074"
             inkscape:connector-curvature="0" />
        </g>
      </g>
    </g>
    <path
       style="fill:#000000;fill-opacity:1;stroke:#000000;stroke-width:0.38873842;stroke-opacity:1"
       d="m -216.38093,479.85109 c -0.0913,-0.28023 -0.42155,-2.08389 -0.73481,-4.00813 -0.54073,-3.32174 -0.51886,-3.90705 0.43277,-11.57575 l 1.00222,-8.07708 -1.29327,-2.67323 c -1.40958,-2.91376 -1.78626,-3.13631 -5.30924,-3.13631 -0.93547,0 -1.70074,-0.1312 -1.70061,-0.29155 1e-4,-0.16036 0.42462,-3.50309 0.94327,-7.4283 l 0.94305,-7.13672 -2.46853,-10.55087 -2.46841,-10.55087 -0.25398,-9.91282 c -0.23938,-9.34141 -0.39706,-10.93241 -2.73572,-27.60043 -1.36494,-9.72819 -3.37465,-24.77234 -4.46591,-33.4315 l -1.9843,-15.74391 0.25937,-11.27342 c 0.19979,-8.68495 0.1089,-13.59409 -0.39748,-21.38059 -0.64058,-9.85728 -0.82486,-21.36058 -0.39241,-24.48894 0.21077,-1.52453 0.0923,-1.71248 -5.73213,-9.13695 -5.49528,-7.00442 -7.86925,-9.51067 -31.24248,-32.98421 l -25.2953,-25.40382 -1.86258,-4.4262 -1.86259,-4.42622 1.49271,-5.29027 c 0.82102,-2.90965 1.67489,-5.52872 1.89754,-5.82012 0.98882,-1.29425 19.64599,-11.05197 28.58836,-14.95174 8.91083,-3.88597 10.35923,-4.67039 22.49263,-12.18124 7.13269,-4.41528 13.07305,-8.0278 13.20071,-8.0278 0.12776,0 0.87709,0.62967 1.66523,1.39928 l 1.43299,1.39929 9.66235,-7.47068 9.66245,-7.47065 9.08093,-4.42168 c 6.56829,-3.19832 9.02287,-4.57264 8.87145,-4.96721 -0.62408,-1.62634 -1.13921,-3.76889 -0.95141,-3.95673 0.11842,-0.11847 3.97994,-0.50414 8.58119,-0.85705 l 8.36569,-0.64168 1.95715,0.91668 c 1.91855,0.89859 2.12548,0.91263 10.50951,0.71285 l 8.55239,-0.20381 4.24017,-2.49199 4.2402,-2.492 13.0404,-2.22079 c 12.07161,-2.05585 13.2934,-2.3372 16.44814,-3.7878 1.87434,-0.86184 3.53164,-1.43024 3.68294,-1.26313 0.15141,0.16711 1.60903,2.10958 3.23916,4.3166 2.15254,2.91412 2.91287,4.24449 2.77707,4.85923 -0.40846,1.8482 -2.14604,13.17086 -2.14604,13.98413 0,0.59798 1.73636,2.60032 5.59623,6.45322 l 5.59621,5.58625 0.2795,5.09905 0.27961,5.09902 3.815102,4.11082 3.815115,4.11081 -1.680505,2.83426 -1.68039,2.83426 0.985711,2.19027 c 0.859611,1.9098 0.975712,2.66321 0.906773,5.88331 -0.04838,2.24807 -0.259928,3.86502 -0.541185,4.13263 -0.254091,0.24182 -1.861479,0.89173 -3.572011,1.44425 -3.08479,0.99653 -3.14429,1.00031 -7.38601,0.46863 -2.35186,-0.2948 -4.3034,-0.50737 -4.33682,-0.4724 -0.033,0.0349 -1.02674,3.21238 -2.20741,7.06088 -1.84201,6.00477 -3.49118,12.8809 -3.8505,16.05467 -0.0901,0.79643 0.36492,1.08558 4.17497,2.65272 2.35187,0.96737 8.02386,3.34883 12.60446,5.29217 l 8.328401,3.53333 11.196835,-0.9849 11.196725,-0.98487 4.665915,0.75184 4.665916,0.75185 16.82087,-2.75688 c 9.251347,-1.51626 22.453922,-3.4196 29.338886,-4.22963 l 12.5181263,-1.47276 4.880982,-3.72452 4.8808712,-3.72453 3.3607885,-0.47705 c 4.138476,-0.58745 4.176299,-0.5874 8.564038,0.0129 l 3.572884,0.48884 1.869401,2.6946 1.869401,2.6946 3.498667,-0.24131 c 1.924267,-0.13272 3.831051,-0.33926 4.237213,-0.45896 0.678953,-0.20004 0.668068,-0.11858 -0.134801,1.009 -0.480379,0.67464 -1.250042,1.45908 -1.710411,1.74317 -0.460367,0.28409 -3.985863,1.31055 -7.834287,2.28104 l -6.997333,1.76452 -10.8846819,0.4645 c -7.2931055,0.31123 -10.9789102,0.61161 -11.1702267,0.91033 -0.1571209,0.24521 -0.6581717,1.58289 -1.1133731,2.97263 -1.5188728,4.63635 -0.6365101,4.27613 -10.4742293,4.27613 l -8.550844,0 -17.777232,5.07144 -17.777123,5.07147 -27.34073,1.69857 c -15.037458,0.93422 -27.387468,1.7571 -27.444648,1.82865 -0.0572,0.0716 -1.87808,3.01646 -4.04654,6.54427 l -3.94277,6.41418 -9.8485,6.37117 -9.84839,6.37117 -2.68325,5.13871 -2.68327,5.13871 -7.39438,1.88286 c -5.17916,1.31879 -9.84014,2.84841 -15.55795,5.10582 -4.72959,1.86728 -12.1697,4.38534 -17.68764,5.9863 -5.2382,1.51985 -9.62946,2.93293 -9.75832,3.14021 -0.12887,0.20727 -0.33877,6.35596 -0.46641,13.66373 l -0.23212,13.28684 -1.93394,9.71847 c -1.25774,6.32035 -2.48678,11.2816 -3.51483,14.18897 -1.5588,4.40795 -1.58099,4.54661 -1.58617,9.91282 -0.0113,10.58495 -0.82079,28.45731 -1.56582,34.52171 l -0.7547,6.14379 1.1767,15.04245 c 0.64718,8.27334 1.32887,20.14419 1.51481,26.3797 l 0.33799,11.33726 1.91964,4.329 1.91966,4.32897 -0.71986,2.59606 c -0.39594,1.42783 -0.71986,2.6899 -0.71986,2.8046 0,0.11473 1.49568,1.93739 3.32384,4.05039 2.46568,2.84998 4.33617,4.54231 7.2454,6.55531 3.57463,2.47347 4.64765,2.97001 12.12855,5.61269 8.89632,3.14268 11.72087,4.15614 12.77454,4.58343 0.7182,0.29122 0.8794,1.22082 0.35504,2.04696 -0.23861,0.37598 -4.98819,0.6267 -19.91691,1.05139 -10.78198,0.3067 -22.09778,0.66368 -25.14618,0.79324 -4.38885,0.18653 -5.5771,0.12951 -5.70805,-0.27388 l 0,0 z m 37.94845,-252.7451 2.59585,-0.8331 6.63185,-7.9169 c 3.64744,-4.3543 6.55445,-8.04196 6.46,-8.19482 -0.0945,-0.15285 -1.31073,-0.76197 -2.70283,-1.3536 l -2.53099,-1.07571 1.13746,-2.2531 c 0.96824,-1.91823 1.08181,-2.44664 0.76382,-3.55529 -0.20537,-0.71619 -0.37339,-1.49396 -0.37339,-1.72836 0,-0.24804 1.58188,-0.62058 3.78476,-0.8913 2.08172,-0.25582 3.8912,-0.58998 4.02117,-0.7426 0.12996,-0.15261 0.69566,-1.92141 1.25697,-3.93067 l 1.02068,-3.65317 -1.4771,-1.78916 c -0.81242,-0.98404 -1.5921,-1.98761 -1.73273,-2.23013 -0.16218,-0.27984 0.86235,-0.90254 2.80377,-1.70409 l 3.05941,-1.26311 0.24002,-1.75163 c 0.13206,-0.96341 0.24014,-2.59672 0.24014,-3.6296 0,-1.0329 0.60684,-5.70269 1.34857,-10.37732 1.10897,-6.9898 1.66654,-9.39101 3.13934,-13.5201 l 1.79089,-5.02081 6.34928,-6.2198 6.34927,-6.21982 0.26719,-3.17226 0.26707,-3.17226 -3.05006,-0.66153 c -1.67753,-0.36385 -4.36213,-0.95888 -5.96565,-1.32231 -2.64467,-0.59936 -3.49129,-0.61204 -9.11259,-0.13642 -5.33729,0.45156 -7.12422,0.79111 -12.87855,2.44721 -9.88709,2.84553 -13.67207,3.48782 -20.57572,3.49162 l -5.83107,0.003 -3.8015,3.03398 c -2.51634,2.00834 -4.50427,3.9989 -5.88055,5.8884 l -2.07907,2.85443 0.20165,4.97286 0.20165,4.97287 -2.6208,3.52001 c -2.89185,3.88384 -2.80796,3.84662 -6.6167,2.93736 -1.95109,-0.46582 -2.54427,-0.82162 -3.69294,-2.21515 -0.75261,-0.91308 -1.82718,-2.17888 -2.38793,-2.81287 l -1.01947,-1.15271 -3.06228,1.4004 -3.06227,1.40039 -0.31522,2.85595 c -0.17329,1.57078 -0.43574,2.97802 -0.58307,3.12719 -0.14735,0.14918 -2.08634,1.07722 -4.30881,2.06232 -3.51164,1.55648 -4.921,2.50719 -10.75988,7.25796 -5.82536,4.73973 -7.23856,6.12069 -10.62519,10.3827 l -3.90626,4.91585 -6.81174,2.25815 c -3.77465,1.25134 -6.80284,2.46217 -6.79173,2.71576 0.0113,0.25171 0.92931,2.242 2.04081,4.42288 l 2.02105,3.96523 5.83106,3.98592 c 5.03525,3.44194 6.62284,4.29615 11.6329,6.25921 5.42481,2.12556 6.00041,2.45225 8.85685,5.02732 l 3.05501,2.75405 9.21946,1.69713 c 7.27518,1.33926 11.47391,1.86799 19.90986,2.5072 8.70356,0.6595 11.70162,1.04464 16.13256,2.07249 6.02734,1.39816 5.28363,1.44122 11.92572,-0.69038 l 0,0 z m 202.079037,-20.27447 0.917108,-0.97629 -1.281929,-1.3227 c -1.101277,-1.13614 -1.591113,-1.34417 -3.473488,-1.47495 -1.890291,-0.13135 -2.565175,0.0325 -4.912537,1.19253 l -2.721198,1.34479 2.332518,1.07669 c 1.865663,0.86121 2.92175,1.08264 5.277357,1.10645 2.662154,0.027 3.033021,-0.064 3.862169,-0.94652 l 0,0 z"
       id="path4135-2"
       inkscape:connector-curvature="0" />
    <rect
       style="fill:none;stroke:#000000;stroke-width:12;stroke-linecap:round;stroke-linejoin:round;stroke-miterlimit:4;stroke-opacity:1;stroke-dasharray:none"
       id="rect5666"
       width="390"
       height="390"
       x="-337"
       y="102.12507" />
  </g>
</svg>
